<svg width="203" height="50" viewBox="0 0 203 50" fill="none" xmlns="http://www.w3.org/2000/svg">
<path d="M14.5 24L0.5 21V56.5H202V11.5L167.5 5.5L137.5 16.5L98.5 2L65 9.5L36.5 14L14.5 24Z" fill="#35524E"/>
<path d="M-2 21.9261C-2 21.9261 5.9266 24.8375 11.2247 24.9912C22.4355 25.3164 26.8127 16.5609 37.6741 13.7526C46.2164 11.5439 51.3609 12.1883 60.0543 10.6875C74.7276 8.1545 82.2976 1.83814 97.1852 2.00317C115.528 2.2065 123.699 18.1998 141.946 16.3068C153.324 15.1264 158.049 7.40304 169.412 6.08993C183.038 4.51536 204 12.2201 204 12.2201" stroke="#8AECBF" stroke-width="3"/>
</svg>
