<svg width="203" height="49" viewBox="0 0 203 49" fill="none" xmlns="http://www.w3.org/2000/svg">
<path d="M187.5 24L201.5 21V56.5H0V11.5L34.5 5.5L64.5 16.5L103.5 2L137 9.5L165.5 14L187.5 24Z" fill="#EA71C1" fill-opacity="0.2"/>
<path d="M204 21.9261C204 21.9261 196.073 24.8375 190.775 24.9912C179.564 25.3164 175.187 16.5609 164.326 13.7526C155.784 11.5439 150.639 12.1883 141.946 10.6875C127.272 8.1545 119.702 1.83814 104.815 2.00317C86.4724 2.2065 78.3008 18.1998 60.0543 16.3068C48.6764 15.1264 43.9511 7.40304 32.5877 6.08993C18.9615 4.51536 -1.99999 12.2201 -1.99999 12.2201" stroke="#EA71C1" stroke-width="3"/>
</svg>
